# xmcd
#
# Track frame offsets:
#	150
#	13426
#	27899
#	46371
#	62605
#	77875
#	89101
#	102411
#	118620
#	131906
#	142640
#	157440
#	170153
#	183141
#	201855
#	212164
#
# Disc length: 3009 seconds
#
# Revision: 1
# Processed by: cddbd v1.4PL0 Copyright (c) Steve Scherf et al.
# Submitted via: audiograbber 1.80.04
#
DISCID=ef0bbf10
DTITLE=Various Artist - Sweetheart
DYEAR=2000
DGENRE=Country
TTITLE0=Suzy Bogguss - I Don't Want To Set The World On Fire
TTITLE1=Tanya Tucker - Just Another Love
TTITLE2=Juice Newton - The Sweetest Thing (I've Ever Known)
TTITLE3=Lacy J. Dalton - Black Coffee
TTITLE4=Deana Carter - We Danced Away
TTITLE5=Diane Pfeifer - Wishful Drinkin'
TTITLE6=Crystal Gayle - Why Have You Left The One You Left For Me
TTITLE7=Billie Jo Spears - Blanket On The Ground
TTITLE8=Sweethearts Of The Rodeo - Blue To The Bone
TTITLE9=Patsy Cline - Honky Tonk Merry Go Round
TTITLE10=Cristy Lane - One Day At A Time
TTITLE11=Susan Raye - L.A. International Airport
TTITLE12=Barbara Mandrell - I Wish That I Could Fall In Love Today
TTITLE13=Juice Newton - Angel Of The Morning
TTITLE14=Jody Miller - Queen Of The House
TTITLE15=Dottie West - A Lesson In Leavin'
EXTD=EMI Plus 724352637621
EXTT0=
EXTT1=
EXTT2=
EXTT3=
EXTT4=
EXTT5=
EXTT6=
EXTT7=
EXTT8=
EXTT9=
EXTT10=
EXTT11=
EXTT12=
EXTT13=
EXTT14=
EXTT15=
PLAYORDER=
